#Comment line ignore any data following # character 
#Hierarchical Translation and Rotation (.htr) file 
[Header]	
#Header keywords are followed by a single value 
FileType HTR		#Single word string
DataType HTRS		#Translation followed by rotation and scale data
FileVersion 1		#integer
NumSegments 84		#integer
NumFrames 2		#integer
DataFrameRate 30		#integer, data frame rate in this file
EulerRotationOrder ZYX
CalibrationUnits mm
RotationUnits Degrees
GlobalAxisofGravity Y
BoneLengthAxis Y
ScaleFactor 1.00
[SegmentNames&Hierarchy]
#CHILD	PARENT
MASTER GLOBAL
root MASTER
chest root
L_mid_tent01 root
R_mid_tent01 root
spine01 root
Bip01_Neck chest
L_humerus chest
R_humerus chest
weapon_bone chest
Bip01_Head Bip01_Neck
eye_left_bone Bip01_Head
eye_right_bone Bip01_Head
L_forearm L_humerus
L_front_hand L_forearm
L_weapon_bone L_forearm
L_front_hand01_01 L_front_hand
L_front_hand02_01 L_front_hand
L_front_hand03_01 L_front_hand
L_front_hand01_02 L_front_hand01_01
L_front_hand02_02 L_front_hand02_01
L_front_hand03_02 L_front_hand03_01
R_forearm R_humerus
R_front_hand R_forearm
R_weapon_bone R_forearm
R_front_hand01_01 R_front_hand
R_front_hand02_01 R_front_hand
R_front_hand03_01 R_front_hand
R_front_hand01_02 R_front_hand01_01
R_front_hand02_02 R_front_hand02_01
R_front_hand03_02 R_front_hand03_01
null_rope01_connect L_mid_tent01
Rope1_Seg01 null_rope01_connect
Rope1_Seg02 Rope1_Seg01
Rope1_Seg03 Rope1_Seg02
Rope1_Seg04 Rope1_Seg03
Rope1_Seg05 Rope1_Seg04
Rope1_Seg06 Rope1_Seg05
Rope1_Seg07 Rope1_Seg06
Rope1_Seg09 Rope1_Seg07
L_mid_hand01 Rope1_Seg09
L_mid_hand02 Rope1_Seg09
L_mid_hand03 Rope1_Seg09
null_rope02_connect R_mid_tent01
Rope2_Seg01 null_rope02_connect
Rope2_Seg02 Rope2_Seg01
Rope2_Seg03 Rope2_Seg02
Rope2_Seg04 Rope2_Seg03
Rope2_Seg05 Rope2_Seg04
Rope2_Seg06 Rope2_Seg05
Rope2_Seg07 Rope2_Seg06
Rope2_Seg09 Rope2_Seg07
R_mid_hand01 Rope2_Seg09
R_mid_hand02 Rope2_Seg09
R_mid_hand03 Rope2_Seg09
spine02 spine01
spine03 spine02
pelvis spine03
null_rope03_connect pelvis
null_rope04_connect pelvis
Rope3_Seg01 null_rope03_connect
Rope3_Seg02 Rope3_Seg01
Rope3_Seg03 Rope3_Seg02
Rope3_Seg04 Rope3_Seg03
Rope3_Seg05 Rope3_Seg04
Rope3_Seg06 Rope3_Seg05
Rope3_Seg07 Rope3_Seg06
Rope3_Seg08 Rope3_Seg07
Rope3_Seg09 Rope3_Seg08
R_rear_hand01 Rope3_Seg09
R_rear_hand02 Rope3_Seg09
R_rear_hand03 Rope3_Seg09
Rope4_Seg01 null_rope04_connect
Rope4_Seg02 Rope4_Seg01
Rope4_Seg03 Rope4_Seg02
Rope4_Seg04 Rope4_Seg03
Rope4_Seg05 Rope4_Seg04
Rope4_Seg06 Rope4_Seg05
Rope4_Seg07 Rope4_Seg06
Rope4_Seg08 Rope4_Seg07
Rope4_Seg09 Rope4_Seg08
L_rear_hand01 Rope4_Seg09
L_rear_hand02 Rope4_Seg09
L_rear_hand03 Rope4_Seg09
[BasePosition]
#SegmentName Tx, Ty, Tz, Rx, Ry, Rz, BoneLength
MASTER 0.000000 0.000000 0.000000 -90.000000 0.000000 0.000000 10.000000 
root 0.000000 0.000000 0.000000 0.000000 0.000000 0.000000 10.000000 
chest 0.000000 0.000000 0.000000 0.000000 0.000000 0.000000 10.000000 
L_mid_tent01 0.000000 0.000000 0.000000 0.000000 0.000000 0.000000 10.000000 
R_mid_tent01 0.000000 0.000000 0.000000 0.000000 0.000000 0.000000 10.000000 
spine01 0.000000 0.000000 0.000000 0.000000 0.000000 0.000000 10.000000 
Bip01_Neck 0.000000 0.000000 0.000000 0.000000 0.000000 0.000000 10.000000 
L_humerus 0.000000 0.000000 0.000000 0.000000 0.000000 0.000000 10.000000 
R_humerus 0.000000 0.000000 0.000000 0.000000 0.000000 0.000000 10.000000 
weapon_bone 0.000000 0.000000 0.000000 0.000000 0.000000 0.000000 10.000000 
Bip01_Head 0.000000 0.000000 0.000000 0.000000 0.000000 0.000000 10.000000 
eye_left_bone 0.000000 0.000000 0.000000 0.000000 0.000000 0.000000 10.000000 
eye_right_bone 0.000000 0.000000 0.000000 0.000000 0.000000 0.000000 10.000000 
L_forearm 0.000000 0.000000 0.000000 0.000000 0.000000 0.000000 10.000000 
L_front_hand 0.000000 0.000000 0.000000 0.000000 0.000000 0.000000 10.000000 
L_weapon_bone 0.000000 0.000000 0.000000 0.000000 0.000000 0.000000 10.000000 
L_front_hand01_01 0.000000 0.000000 0.000000 0.000000 0.000000 0.000000 10.000000 
L_front_hand02_01 0.000000 0.000000 0.000000 0.000000 0.000000 0.000000 10.000000 
L_front_hand03_01 0.000000 0.000000 0.000000 0.000000 0.000000 0.000000 10.000000 
L_front_hand01_02 0.000000 0.000000 0.000000 0.000000 0.000000 0.000000 10.000000 
L_front_hand02_02 0.000000 0.000000 0.000000 0.000000 0.000000 0.000000 10.000000 
L_front_hand03_02 0.000000 0.000000 0.000000 0.000000 0.000000 0.000000 10.000000 
R_forearm 0.000000 0.000000 0.000000 0.000000 0.000000 0.000000 10.000000 
R_front_hand 0.000000 0.000000 0.000000 0.000000 0.000000 0.000000 10.000000 
R_weapon_bone 0.000000 0.000000 0.000000 0.000000 0.000000 0.000000 10.000000 
R_front_hand01_01 0.000000 0.000000 0.000000 0.000000 0.000000 0.000000 10.000000 
R_front_hand02_01 0.000000 0.000000 0.000000 0.000000 0.000000 0.000000 10.000000 
R_front_hand03_01 0.000000 0.000000 0.000000 0.000000 0.000000 0.000000 10.000000 
R_front_hand01_02 0.000000 0.000000 0.000000 0.000000 0.000000 0.000000 10.000000 
R_front_hand02_02 0.000000 0.000000 0.000000 0.000000 0.000000 0.000000 10.000000 
R_front_hand03_02 0.000000 0.000000 0.000000 0.000000 0.000000 0.000000 10.000000 
null_rope01_connect 0.000000 0.000000 0.000000 0.000000 0.000000 0.000000 10.000000 
Rope1_Seg01 0.000000 0.000000 0.000000 0.000000 0.000000 0.000000 10.000000 
Rope1_Seg02 0.000000 0.000000 0.000000 0.000000 0.000000 0.000000 10.000000 
Rope1_Seg03 0.000000 0.000000 0.000000 0.000000 0.000000 0.000000 10.000000 
Rope1_Seg04 0.000000 0.000000 0.000000 0.000000 0.000000 0.000000 10.000000 
Rope1_Seg05 0.000000 0.000000 0.000000 0.000000 0.000000 0.000000 10.000000 
Rope1_Seg06 0.000000 0.000000 0.000000 0.000000 0.000000 0.000000 10.000000 
Rope1_Seg07 0.000000 0.000000 0.000000 0.000000 0.000000 0.000000 10.000000 
Rope1_Seg09 0.000000 0.000000 0.000000 0.000000 0.000000 0.000000 10.000000 
L_mid_hand01 0.000000 0.000000 0.000000 0.000000 0.000000 0.000000 10.000000 
L_mid_hand02 0.000000 0.000000 0.000000 0.000000 0.000000 0.000000 10.000000 
L_mid_hand03 0.000000 0.000000 0.000000 0.000000 0.000000 0.000000 10.000000 
null_rope02_connect 0.000000 0.000000 0.000000 0.000000 0.000000 0.000000 10.000000 
Rope2_Seg01 0.000000 0.000000 0.000000 0.000000 0.000000 0.000000 10.000000 
Rope2_Seg02 0.000000 0.000000 0.000000 0.000000 0.000000 0.000000 10.000000 
Rope2_Seg03 0.000000 0.000000 0.000000 0.000000 0.000000 0.000000 10.000000 
Rope2_Seg04 0.000000 0.000000 0.000000 0.000000 0.000000 0.000000 10.000000 
Rope2_Seg05 0.000000 0.000000 0.000000 0.000000 0.000000 0.000000 10.000000 
Rope2_Seg06 0.000000 0.000000 0.000000 0.000000 0.000000 0.000000 10.000000 
Rope2_Seg07 0.000000 0.000000 0.000000 0.000000 0.000000 0.000000 10.000000 
Rope2_Seg09 0.000000 0.000000 0.000000 0.000000 0.000000 0.000000 10.000000 
R_mid_hand01 0.000000 0.000000 0.000000 0.000000 0.000000 0.000000 10.000000 
R_mid_hand02 0.000000 0.000000 0.000000 0.000000 0.000000 0.000000 10.000000 
R_mid_hand03 0.000000 0.000000 0.000000 0.000000 0.000000 0.000000 10.000000 
spine02 0.000000 0.000000 0.000000 0.000000 0.000000 0.000000 10.000000 
spine03 0.000000 0.000000 0.000000 0.000000 0.000000 0.000000 10.000000 
pelvis 0.000000 0.000000 0.000000 0.000000 0.000000 0.000000 10.000000 
null_rope03_connect 0.000000 0.000000 0.000000 0.000000 0.000000 0.000000 10.000000 
null_rope04_connect 0.000000 0.000000 0.000000 0.000000 0.000000 0.000000 10.000000 
Rope3_Seg01 0.000000 0.000000 0.000000 0.000000 0.000000 0.000000 10.000000 
Rope3_Seg02 0.000000 0.000000 0.000000 0.000000 0.000000 0.000000 10.000000 
Rope3_Seg03 0.000000 0.000000 0.000000 0.000000 0.000000 0.000000 10.000000 
Rope3_Seg04 0.000000 0.000000 0.000000 0.000000 0.000000 0.000000 10.000000 
Rope3_Seg05 0.000000 0.000000 0.000000 0.000000 0.000000 0.000000 10.000000 
Rope3_Seg06 0.000000 0.000000 0.000000 0.000000 0.000000 0.000000 10.000000 
Rope3_Seg07 0.000000 0.000000 0.000000 0.000000 0.000000 0.000000 10.000000 
Rope3_Seg08 0.000000 0.000000 0.000000 0.000000 0.000000 0.000000 10.000000 
Rope3_Seg09 0.000000 0.000000 0.000000 0.000000 0.000000 0.000000 10.000000 
R_rear_hand01 0.000000 0.000000 0.000000 0.000000 0.000000 0.000000 10.000000 
R_rear_hand02 0.000000 0.000000 0.000000 0.000000 0.000000 0.000000 10.000000 
R_rear_hand03 0.000000 0.000000 0.000000 0.000000 0.000000 0.000000 10.000000 
Rope4_Seg01 0.000000 0.000000 0.000000 0.000000 0.000000 0.000000 10.000000 
Rope4_Seg02 0.000000 0.000000 0.000000 0.000000 0.000000 0.000000 10.000000 
Rope4_Seg03 0.000000 0.000000 0.000000 0.000000 0.000000 0.000000 10.000000 
Rope4_Seg04 0.000000 0.000000 0.000000 0.000000 0.000000 0.000000 10.000000 
Rope4_Seg05 0.000000 0.000000 0.000000 0.000000 0.000000 0.000000 10.000000 
Rope4_Seg06 0.000000 0.000000 0.000000 0.000000 0.000000 0.000000 10.000000 
Rope4_Seg07 0.000000 0.000000 0.000000 0.000000 0.000000 0.000000 10.000000 
Rope4_Seg08 0.000000 0.000000 0.000000 0.000000 0.000000 0.000000 10.000000 
Rope4_Seg09 0.000000 0.000000 0.000000 0.000000 0.000000 0.000000 10.000000 
L_rear_hand01 0.000000 0.000000 0.000000 0.000000 0.000000 0.000000 10.000000 
L_rear_hand02 0.000000 0.000000 0.000000 0.000000 0.000000 0.000000 10.000000 
L_rear_hand03 0.000000 0.000000 0.000000 0.000000 0.000000 0.000000 10.000000 
#Beginning of Data. Separated by tabs
#Fr	Tx	Ty	Tz	Rx	Ry	Rz	SF
[MASTER]
12 0.000000 0.000000 0.000000 0.001660 0.001660 0.001660 0.000000
13 0.000000 0.000000 0.000000 0.001660 0.001660 0.001660 0.000000
[root]
12 451.733612 64.701378 1320.008545 -89.594803 -18.401894 -90.599213 1396.664551
13 492.447937 30.452217 1336.771729 -90.182007 -23.012936 -90.543449 1424.917847
[chest]
12 -84.512650 -34.090519 0.000000 3.100452 3.686145 156.639633 91.129311
13 -84.512650 -34.090519 0.000000 3.854326 3.558382 160.496124 91.129311
[L_mid_tent01]
12 27.299225 22.178701 -249.918564 -6.373730 39.189445 63.196465 252.381516
13 27.299219 22.178724 -249.918564 -1.379274 36.511192 66.497528 252.381531
[R_mid_tent01]
12 23.228794 24.509907 226.238495 164.543198 -25.806240 86.499084 228.744751
13 23.228794 24.509907 226.238495 161.593506 -25.935877 83.889374 228.744751
[spine01]
12 -0.361383 -0.195265 0.000000 0.001919 0.001353 19.637199 0.410763
13 -0.361383 -0.195265 0.000000 0.001920 0.001351 19.733786 0.410763
[Bip01_Neck]
12 165.484543 71.581718 0.000119 176.643677 -1.657967 43.431911 180.302734
13 165.484543 71.581718 0.000119 176.643677 -1.657967 43.431911 180.302734
[L_humerus]
12 -13.983130 -135.272980 -120.471481 175.435013 23.843994 -160.008163 181.680161
13 -13.983130 -135.272980 -120.471481 175.781540 24.554323 -160.224838 181.680161
[R_humerus]
12 -13.983309 -135.273102 125.287651 -178.086792 -12.594289 -153.307800 184.909012
13 -13.983309 -135.273102 125.287651 -177.164948 -12.315565 -152.370743 184.909012
[weapon_bone]
12 235.964890 -300.705902 0.000000 0.000000 -89.951546 -128.212341 382.234833
13 235.964890 -300.705902 0.000000 0.000000 -89.951546 -128.212341 382.234833
[Bip01_Head]
12 213.442108 185.721634 11.698215 -1.459888 11.115391 -40.830009 283.172913
13 213.442642 185.720093 11.717893 -0.947332 11.114990 -40.830231 283.173126
[eye_left_bone]
12 -24.626970 125.451866 -64.772606 0.000000 -90.000000 -99.840431 143.318359
13 -24.626970 125.451866 -64.772606 0.000000 -90.000000 -99.840431 143.318359
[eye_right_bone]
12 -24.626970 125.451866 64.327362 0.000000 -89.965736 80.156380 143.117676
13 -24.626970 125.451866 64.327362 0.000000 -89.965736 80.156380 143.117676
[L_forearm]
12 322.776093 0.000000 -0.000119 0.000338 0.002323 -73.459778 322.776093
13 322.776093 0.000000 -0.000119 0.000295 0.002329 -75.572510 322.776093
[L_front_hand]
12 241.149185 -0.042021 -3.300071 154.775696 -1.838252 -27.422863 241.171753
13 241.149185 -0.042021 -3.300071 152.324615 -1.834277 -27.425674 241.171753
[L_weapon_bone]
12 156.183838 0.000000 0.000000 0.000014 0.000007 0.000001 156.183838
13 156.183838 0.000000 0.000000 0.000014 0.000007 0.000001 156.183838
[L_front_hand01_01]
12 86.095154 20.947098 -0.655860 -0.366594 -0.477154 75.385574 88.609184
13 86.095154 20.947098 -0.655860 -0.366594 -0.477154 75.385574 88.609184
[L_front_hand02_01]
12 86.935165 -11.437475 24.513514 154.399796 -59.883835 -61.369587 91.046425
13 86.935165 -11.437475 24.513514 154.399796 -59.883835 -61.369587 91.046425
[L_front_hand03_01]
12 86.637497 -14.123976 -20.424902 -153.913879 58.118130 -62.702892 90.126129
13 86.637497 -14.123976 -20.424902 -153.913849 58.118122 -62.702866 90.126129
[L_front_hand01_02]
12 71.020905 -0.000179 0.000030 0.000334 -0.002323 -106.379684 71.020905
13 71.020905 -0.000179 0.000030 0.000334 -0.002323 -106.379684 71.020905
[L_front_hand02_02]
12 71.020927 -0.000119 0.000060 0.000334 -0.002323 -106.379684 71.020927
13 71.020927 -0.000119 0.000060 0.000334 -0.002323 -106.379684 71.020927
[L_front_hand03_02]
12 71.020905 -0.000060 0.000060 0.000334 -0.002323 -106.379684 71.020905
13 71.020905 -0.000060 0.000060 0.000334 -0.002323 -106.379684 71.020905
[R_forearm]
12 322.776428 -0.000060 0.000030 0.172204 -0.126720 -54.165241 322.776428
13 322.776428 -0.000060 0.000030 0.179419 -0.120379 -56.797211 322.776428
[R_front_hand]
12 238.847015 -0.006795 2.210259 47.463593 -10.642826 -26.313158 238.857239
13 238.847015 -0.006795 2.210259 19.288818 -10.642859 -26.315084 238.857239
[R_weapon_bone]
12 155.664093 0.002503 -0.000030 0.003487 0.001180 -90.988930 155.664078
13 155.664093 0.002503 -0.000030 0.003487 0.001180 -90.988930 155.664078
[R_front_hand01_01]
12 87.624611 14.231146 22.918642 -154.633499 -59.950642 61.746071 91.683487
13 87.624611 14.231146 22.918642 -154.633499 -59.950619 61.746044 91.683487
[R_front_hand02_01]
12 89.356956 14.367283 -19.491137 154.602661 58.302849 63.744389 92.579636
13 89.356956 14.367283 -19.491137 154.602661 58.302849 63.744389 92.579636
[R_front_hand03_01]
12 87.286232 -22.307278 -0.143439 0.162155 -0.423168 -75.767921 90.091743
13 87.286232 -22.307278 -0.143439 0.162155 -0.423168 -75.767906 90.091743
[R_front_hand01_02]
12 71.020905 0.000060 0.000119 0.002323 -0.000334 106.381714 71.020905
13 71.020905 0.000060 0.000119 0.002323 -0.000334 106.381714 71.020905
[R_front_hand02_02]
12 71.020844 -0.000030 -0.000119 0.002323 -0.000334 106.381714 71.020836
13 71.020844 -0.000030 -0.000119 0.002323 -0.000334 106.381714 71.020836
[R_front_hand03_02]
12 71.020905 0.000000 0.000030 0.002323 -0.000334 106.381714 71.020905
13 71.020905 0.000000 0.000030 0.002323 -0.000334 106.381714 71.020905
[null_rope01_connect]
12 328.732483 0.000000 -0.000238 -144.087143 -50.417389 -173.194626 328.732483
13 328.732483 0.000000 -0.000238 -135.373337 -52.918072 -178.672119 328.732483
[Rope1_Seg01]
12 -0.000003 -0.000058 0.000047 130.001648 47.562553 162.894089 0.000074
13 0.000000 -0.000057 0.000051 138.175568 45.257038 176.615509 0.000077
[Rope1_Seg02]
12 139.999863 -0.000179 0.000000 -6.651503 15.565825 -5.079308 139.999863
13 139.999863 -0.000179 0.000000 -7.935544 13.916423 -4.484787 139.999863
[Rope1_Seg03]
12 139.999924 0.000060 -0.000060 -10.887464 15.477535 -4.851693 139.999924
13 139.999924 0.000060 -0.000060 -8.263924 10.539394 -3.720010 139.999924
[Rope1_Seg04]
12 139.999924 -0.000060 -0.000119 -12.404860 9.205976 2.288397 139.999924
13 139.999924 -0.000060 -0.000119 -12.003151 6.811439 3.829189 139.999924
[Rope1_Seg05]
12 139.999832 0.000119 -0.000060 -10.139271 3.879344 6.915432 139.999832
13 139.999832 0.000119 -0.000060 -11.164007 3.784552 7.907180 139.999832
[Rope1_Seg06]
12 139.999954 0.000119 -0.000060 -8.138853 3.674972 5.775152 139.999954
13 139.999954 0.000119 -0.000060 -7.215722 2.600993 5.882752 139.999954
[Rope1_Seg07]
12 139.999985 0.000060 0.000000 -4.676912 1.830181 4.021800 139.999985
13 139.999985 0.000060 0.000000 -4.084076 1.205940 4.052439 139.999985
[Rope1_Seg09]
12 121.602913 0.000119 -0.000089 -89.793175 -1.359789 0.847147 121.602913
13 121.602913 0.000119 -0.000089 -89.793175 -1.359789 0.847147 121.602913
[L_mid_hand01]
12 103.859421 1.038730 8.195221 109.056198 -40.604706 -13.201404 104.187431
13 103.859421 1.038730 8.195221 109.056198 -40.604698 -13.201401 104.187431
[L_mid_hand02]
12 105.572853 -4.139662 -10.864139 -146.713593 31.476530 -37.902313 106.211075
13 105.572853 -4.139662 -10.864139 -146.713593 31.476534 -37.902313 106.211075
[L_mid_hand03]
12 104.641464 17.579376 -3.913581 -14.267233 12.322316 43.898396 106.179977
13 104.641464 17.579376 -3.913581 -14.267233 12.322316 43.898396 106.179977
[null_rope02_connect]
12 328.732849 0.000179 -0.000119 -126.708618 60.344017 27.670815 328.732849
13 328.732849 0.000179 -0.000119 -113.767372 59.198765 32.808353 328.732849
[Rope2_Seg01]
12 0.000003 0.000088 0.000079 -135.622452 61.946171 -27.843031 0.000119
13 0.000006 0.000089 0.000076 -149.750565 57.915382 -38.558388 0.000117
[Rope2_Seg02]
12 139.999741 -0.000060 -0.000119 -13.178124 9.422073 9.260085 139.999756
13 139.999741 -0.000060 -0.000119 -15.269803 9.250509 8.607789 139.999756
[Rope2_Seg03]
12 140.000107 0.000030 0.000000 -16.199125 8.850022 11.416219 140.000107
13 140.000107 0.000030 0.000000 -17.873306 7.976932 10.453343 140.000107
[Rope2_Seg04]
12 139.999802 0.000000 -0.000060 -15.776842 4.914636 13.690617 139.999802
13 139.999802 0.000000 -0.000060 -16.415726 3.930096 12.175173 139.999802
[Rope2_Seg05]
12 139.999985 -0.000060 0.000119 -11.391043 -9.073896 19.269529 139.999985
13 139.999985 -0.000060 0.000119 -11.288497 -8.975255 16.974752 139.999985
[Rope2_Seg06]
12 139.999893 -0.000030 -0.000119 -3.384967 -8.444186 10.560220 139.999893
13 139.999893 -0.000030 -0.000119 -3.799320 -9.003773 10.225837 139.999893
[Rope2_Seg07]
12 139.999893 0.000060 -0.000060 -1.039357 -3.937445 5.205700 139.999893
13 139.999893 0.000060 -0.000060 -1.318202 -4.523337 5.312333 139.999893
[Rope2_Seg09]
12 121.338966 0.000089 -0.000060 33.793236 -1.359788 -0.847141 121.338966
13 121.338966 0.000089 -0.000060 33.793236 -1.359788 -0.847141 121.338966
[R_mid_hand01]
12 104.680779 11.144459 -10.335981 -37.204079 31.906813 37.576260 105.778534
13 104.680779 11.144459 -10.335981 -37.204079 31.906813 37.576260 105.778534
[R_mid_hand02]
12 104.070427 2.443552 8.231699 70.367470 -42.427395 14.067809 104.424065
13 104.070427 2.443552 8.231699 70.367462 -42.427391 14.067809 104.424065
[R_mid_hand03]
12 106.028137 -11.221827 -5.996406 -169.893616 12.226661 -47.211018 106.788818
13 106.028137 -11.221827 -5.996406 -169.893616 12.226661 -47.211018 106.788818
[spine02]
12 129.756927 0.001550 0.000119 -0.170152 -4.056138 -5.446269 129.756927
13 129.756927 0.001550 0.000119 -0.148964 -4.057106 -5.745958 129.756927
[spine03]
12 78.614021 0.083297 -4.898967 1.580414 3.971494 11.823145 78.766556
13 78.614021 0.083237 -4.898968 1.593212 3.966415 12.009469 78.766556
[pelvis]
12 169.435242 0.051022 0.000000 -0.027951 -0.188712 4.681154 169.435257
13 169.435242 0.051022 0.000000 -0.029206 -0.188440 5.058837 169.435257
[null_rope03_connect]
12 -1.257226 -2.466202 137.391083 -22.073261 -88.950958 99.822716 137.418976
13 -1.257226 -2.466202 137.391083 -48.279930 -89.348686 130.278290 137.418976
[null_rope04_connect]
12 -1.259640 -2.480268 -137.844437 -22.073261 -88.950958 99.822716 137.872513
13 -1.259640 -2.480268 -137.844437 -48.279930 -89.348686 130.278290 137.872513
[Rope3_Seg01]
12 0.000010 0.000038 -0.000114 -151.892517 -38.837337 -48.732933 0.000121
13 0.000010 0.000038 -0.000114 -155.334625 -46.121017 -50.115372 0.000121
[Rope3_Seg02]
12 139.999924 -0.000119 0.000060 7.815740 -11.140545 21.126478 139.999924
13 139.999924 -0.000119 0.000060 6.877388 -10.081715 17.177219 139.999924
[Rope3_Seg03]
12 139.999924 -0.000119 0.000119 2.813992 -6.701306 11.731961 139.999924
13 139.999924 -0.000119 0.000119 3.192357 -7.168934 10.699314 139.999924
[Rope3_Seg04]
12 139.999924 0.000119 0.000000 1.003366 -2.579265 13.645734 139.999924
13 139.999924 0.000119 0.000000 1.497562 -3.765681 10.393942 139.999924
[Rope3_Seg05]
12 139.999924 -0.000238 0.000060 -1.833738 0.940674 26.727015 139.999924
13 139.999924 -0.000238 0.000060 -0.935045 0.092976 29.322348 139.999924
[Rope3_Seg06]
12 139.999893 -0.000119 -0.000060 -4.853479 0.100173 17.549873 139.999893
13 139.999893 -0.000119 -0.000060 -6.632085 0.194327 24.207062 139.999893
[Rope3_Seg07]
12 139.999771 0.000060 -0.000119 -3.673838 -0.861220 8.037319 139.999771
13 139.999771 0.000060 -0.000119 -5.213150 -1.366081 9.660523 139.999771
[Rope3_Seg08]
12 139.999985 -0.000060 0.000000 -2.308498 -0.747332 4.346198 139.999985
13 139.999985 -0.000060 0.000000 -3.230679 -1.143013 4.889237 139.999985
[Rope3_Seg09]
12 90.185997 -0.000179 -0.000060 89.793228 -1.359877 -0.847183 90.185997
13 90.185997 -0.000179 -0.000060 89.793228 -1.359877 -0.847183 90.185997
[R_rear_hand01]
12 103.366196 -6.073594 -10.757982 -164.755127 19.627695 -40.352161 104.101845
13 103.366196 -6.073594 -10.757982 -164.755127 19.627697 -40.352161 104.101845
[R_rear_hand02]
12 100.509819 12.039542 -7.992327 -30.792654 24.782450 38.141541 101.543350
13 100.509819 12.039542 -7.992327 -30.792652 24.782448 38.141541 101.543350
[R_rear_hand03]
12 101.539970 5.215704 5.435467 82.448349 -41.048256 8.840378 101.819031
13 101.539970 5.215704 5.435467 82.448349 -41.048256 8.840378 101.819031
[Rope4_Seg01]
12 -0.000016 -0.000053 -0.000153 52.153027 -10.463355 -154.265259 0.000162
13 -0.000016 -0.000051 -0.000153 56.727642 -14.308413 -148.613220 0.000162
[Rope4_Seg02]
12 139.999985 0.000060 0.000119 3.669581 -8.395648 -1.652051 139.999985
13 139.999985 0.000060 0.000119 14.468528 -18.808531 -0.552856 139.999985
[Rope4_Seg03]
12 139.999924 0.000000 -0.000238 14.723443 -17.537806 -5.036287 139.999924
13 139.999924 0.000000 -0.000238 101.816574 -36.944122 6.619453 139.999924
[Rope4_Seg04]
12 139.999985 0.000000 0.000119 120.087006 -20.823057 2.470953 139.999985
13 139.999985 0.000000 0.000119 5.508028 5.441257 5.470213 139.999985
[Rope4_Seg05]
12 139.999802 -0.000060 -0.000119 -92.098999 -2.703913 -27.728376 139.999802
13 139.999802 -0.000060 -0.000119 -60.400940 -8.291170 -26.254593 139.999802
[Rope4_Seg06]
12 139.999924 0.000000 0.000060 -5.276254 6.687531 -0.252289 139.999924
13 139.999924 0.000000 0.000060 -15.916743 5.472162 -5.444629 139.999924
[Rope4_Seg07]
12 139.999802 0.000000 0.000000 -1.172274 2.780195 0.349208 139.999802
13 139.999802 0.000000 0.000000 -5.163239 3.039846 -1.586545 139.999802
[Rope4_Seg08]
12 139.999924 0.000000 0.000119 -2.092498 1.559125 0.230425 139.999924
13 139.999924 0.000000 0.000119 -4.082048 1.820917 -0.751221 139.999924
[Rope4_Seg09]
12 90.185791 0.000060 0.000060 -135.617828 2.228885 0.850567 90.185791
13 90.185791 0.000060 0.000060 -135.617828 2.228885 0.850567 90.185791
[L_rear_hand01]
12 101.696655 -8.392275 -7.654577 -31.684452 -23.583008 144.025742 102.329041
13 101.696655 -8.392275 -7.654577 -31.684452 -23.583008 144.025742 102.329041
[L_rear_hand02]
12 102.726799 -1.568258 5.773216 82.701553 38.753960 171.553619 102.900848
13 102.726799 -1.568258 5.773216 82.701553 38.753956 171.553619 102.900848
[L_rear_hand03]
12 104.552910 9.721220 -10.420293 -163.975403 -19.004421 -142.009354 105.519653
13 104.552910 9.721220 -10.420293 -163.975388 -19.004423 -142.009338 105.519653
